<svg xmlns="http://www.w3.org/2000/svg" viewBox="0 0 57 34.14"><title>FOX Sports logo</title><ellipse cx="28.5" cy="17.07" rx="28.5" ry="17.07" fill="#fff"/><path d="M28.5 0c-15.74 0-28.5 7.64-28.5 17.07s12.76 17.07 28.5 17.07 28.5-7.65 28.5-17.07-12.76-17.07-28.5-17.07z" fill="#002d56" opacity=".3"/><path d="M28.49 2.15c-6.39 0-12.1 2.07-15.91 5.33a14.55 14.55 0 0 0-3.73 9.59 14.55 14.55 0 0 0 3.73 9.59c3.81 3.25 9.52 5.34 15.91 5.34s12.1-2.07 15.91-5.33a14.55 14.55 0 0 0 3.73-9.59 14.55 14.55 0 0 0-3.73-9.59c-3.82-3.27-9.53-5.34-15.91-5.34z" fill="#fff"/><g fill="#002d56"><path d="M17.11 12.75h3.62v3.6h-3.65v4.27h-3.71v-13.19h7.94l.25 3.6h-4.45v1.72zM44.09 20.6h-4.11l-1.93-3.33-1.91 3.34h-4l3.9-6.81-3.68-6.36h4.12l1.62 2.84 1.65-2.84h3.98l-3.62 6.31 3.98 6.85zM27.74 7.62a6.42 6.42 0 1 0 6.26 6.38 6.35 6.35 0 0 0-6.26-6.38zm1.13 9a1.1 1.1 0 0 1-1.11 1.08 1.08 1.08 0 0 1-1.07-1.09v-5.21a1.12 1.12 0 0 1 1.06-1.14 1.16 1.16 0 0 1 1.11 1.14zM17.1 23.42h-2.62l-.08-.07v-.71l.11-.11h2.77l.27-.28v-.74h-3.81l-.68.67v1.67l.59.59h2.63l.07.07v.73l-.1.11h-2.84l-.35.34v.68h4l.67-.67v-1.7zM22.48 21.51h-4v4.86h1.34v-1.56h2.62l.75-.75v-1.8zm-.59 2.16l-.2.19h-1.83v-1.32h1.83l.2.2zM28 21.51h-3.32l-.75.75v3.37l.75.74h3.32l.75-.74v-3.37zm-.63 3.49l-.27.27h-1.56l-.27-.27v-2.16l.27-.28h1.56l.27.28zM33.62 24.38l.64-.65v-1.55l-.67-.67h-4v4.86h1.34v-1.76h1.41l.66 1.76h1.49zm-.7-1l-.19.19h-1.8v-1.06h1.8l.19.19zM34.71 21.51v1.13h1.55v3.73h1.34v-3.73h1.55v-1.13zM43.62 23.42h-2.62l-.08-.07v-.71l.11-.11h2.77l.27-.28v-.74h-3.82l-.68.67v1.67l.59.59h2.63l.07.07v.73l-.1.11h-2.84l-.35.34v.68h4l.67-.67v-1.7z"/></g><path d="M27.87 32.51c-11.48-.24-20.68-7.06-20.68-15.44s9.2-15.2 20.68-15.44v-.92c-15 .2-27.05 7.44-27.05 16.36s12.05 16.15 27.05 16.35zM29.13.71v.91c11.48.24 20.68 7.06 20.68 15.44s-9.2 15.2-20.68 15.44v.91c15-.2 27.05-7.44 27.05-16.35s-12.05-16.15-27.05-16.35z" fill="#fff"/><path d="M6.27 16.32c.34-5.32 4.28-10.04 10.13-12.78l-.12-.45c-8.28 2.5-14.01 7.46-14.47 13.23zM6.25 17.43h-4.47c.22 5.93 6.06 11.06 14.5 13.57l.12-.45c-5.99-2.77-9.98-7.6-10.15-13.12zM50.73 16.32h4.47c-.46-5.78-6.2-10.74-14.51-13.24l-.12.44c5.86 2.75 9.82 7.48 10.16 12.8zM50.75 17.43c-.17 5.57-4.17 10.37-10.18 13.18l.12.44c8.46-2.55 14.31-7.68 14.53-13.62z" fill="#002d56"/><path d="M28.5 1.61c-11.77 0-21.31 6.92-21.31 15.46s9.54 15.45 21.31 15.45 21.31-6.92 21.31-15.45-9.54-15.46-21.31-15.46zm15.89 25c-3.8 3.3-9.52 5.39-15.9 5.39s-12.1-2.07-15.91-5.33a14.55 14.55 0 0 1-3.73-9.59 14.55 14.55 0 0 1 3.73-9.59c3.81-3.26 9.52-5.33 15.91-5.33s12.1 2.07 15.91 5.33a14.55 14.55 0 0 1 3.73 9.59 14.55 14.55 0 0 1-3.73 9.58z" fill="#002d56" opacity=".5"/></svg>
